# xmcd CD database file
#
# Track frame offsets:
#	150
#	28259
#	48395
#	57820
#	77084
#	83746
#	102005
#	136150
#
# Disc length: 2208 seconds
#
# Revision: 3
# Processed by: cddbd v1.5.2PL0 Copyright (c) Steve Scherf et al.
# Submitted via: CDex 1.51
#
DISCID=5b089e08
DTITLE=Steve Hackett - Spectral Mornings
DYEAR=1979
DGENRE=Blues
TTITLE0=EveryDay
TTITLE1=The Virgin and the Gypsy
TTITLE2=The Red Fower of Tachai Blooms Everywhere
TTITLE3=Clocks - The Angel of Mons
TTITLE4=The Ballad of the Decomposing Man
TTITLE5=Lost Time in Cordoba
TTITLE6=Tigermoth
TTITLE7=Spectral Mornings
EXTD=YEAR: 1979
EXTT0=
EXTT1=
EXTT2=
EXTT3=
EXTT4=
EXTT5=
EXTT6=
EXTT7=
PLAYORDER=
